HIERARCHY
ROOT Hips
{
	OFFSET 0.000000 0.000000 0.000000
	CHANNELS 6 Xposition Yposition Zposition Zrotation Yrotation Xrotation 
	JOINT LowerBack
	{
		OFFSET 0.000000 0.000000 0.000000
		CHANNELS 3 Zrotation Yrotation Xrotation
		JOINT Spine
		{
			OFFSET 0.028270 2.035590 -0.193380
			CHANNELS 3 Zrotation Yrotation Xrotation
			JOINT Spine1
			{
				OFFSET 0.056720 2.048850 -0.042750
				CHANNELS 3 Zrotation Yrotation Xrotation
				JOINT Neck
				{
					OFFSET 0.000000 0.000000 0.000000
					CHANNELS 3 Zrotation Yrotation Xrotation
					JOINT Neck1
					{
						OFFSET -0.054170 1.746240 0.172020
						CHANNELS 3 Zrotation Yrotation Xrotation
						JOINT Head
						{
							OFFSET 0.104070 1.761360 -0.123970
							CHANNELS 3 Zrotation Yrotation Xrotation
							End Site
							{
								OFFSET 0.000000 0.000000 0.000000
							}
						}
					}
				}
				JOINT LeftShoulder
				{
					OFFSET 0.000000 0.000000 0.000000
					CHANNELS 3 Zrotation Yrotation Xrotation
					JOINT LeftArm
					{
						OFFSET 3.362410 1.200890 -0.311210
						CHANNELS 3 Zrotation Yrotation Xrotation
						JOINT LeftForeArm
						{
							OFFSET 4.983000 -0.000000 -0.000000
							CHANNELS 3 Zrotation Yrotation Xrotation
							JOINT LeftHand
							{
								OFFSET 3.483560 -0.000000 -0.000000
								CHANNELS 3 Zrotation Yrotation Xrotation
								JOINT LeftFingerBase
								{
									OFFSET 0.000000 0.000000 0.000000
									CHANNELS 3 Zrotation Yrotation Xrotation
									JOINT LeftHandIndex1
									{
										OFFSET 0.715260 -0.000000 -0.000000
										CHANNELS 3 Zrotation Yrotation Xrotation
										End Site
										{
											OFFSET 0.000000 0.000000 0.000000
										}
									}
								}
								JOINT LThumb
								{
									OFFSET 0.000000 0.000000 0.000000
									CHANNELS 3 Zrotation Yrotation Xrotation
									End Site
									{
										OFFSET 0.000000 0.000000 0.000000
									}
								}
							}
						}
					}
				}
				JOINT RightShoulder
				{
					OFFSET 0.000000 0.000000 0.000000
					CHANNELS 3 Zrotation Yrotation Xrotation
					JOINT RightArm
					{
						OFFSET -3.136600 1.374050 -0.404650
						CHANNELS 3 Zrotation Yrotation Xrotation
						JOINT RightForeArm
						{
							OFFSET -5.241900 -0.000000 -0.000000
							CHANNELS 3 Zrotation Yrotation Xrotation
							JOINT RightHand
							{
								OFFSET -3.444170 -0.000000 -0.000000
								CHANNELS 3 Zrotation Yrotation Xrotation
								JOINT RightFingerBase
								{
									OFFSET 0.000000 0.000000 0.000000
									CHANNELS 3 Zrotation Yrotation Xrotation
									JOINT RightHandIndex1
									{
										OFFSET -0.622530 -0.000000 -0.000000
										CHANNELS 3 Zrotation Yrotation Xrotation
										End Site
										{
											OFFSET 0.000000 0.000000 0.000000
										}
									}
								}
								JOINT RThumb
								{
									OFFSET 0.000000 0.000000 0.000000
									CHANNELS 3 Zrotation Yrotation Xrotation
									End Site
									{
										OFFSET 0.000000 0.000000 0.000000
									}
								}
							}
						}
					}
				}
			}
		}
	}
}
}
MOTION
Frames: 17
Frame Time: 0.008333
3.687368 16.946046 -4.295425 -172.226537 16.100934 -157.068717 12.315849 -2.384535 -9.364560 2.175938 -3.781774 -4.487128 -6.294889 -3.896583 0.477267 8.185096 -14.439913 -6.351344 -3.806443 -0.312348 0.414417 0.000000 0.000000 0.000000 5.938159 1.463336 -1.501214 -77.979033 -37.119792 39.815680 -178.234611 -73.218539 179.963912 4.032321 -1.645246 -0.086678 -0.299421 0.795451 -0.000000 0.000000 0.000000 0.000000 0.000000 0.000000 0.000000 11.483684 -12.108121 2.399507 64.697416 -15.288460 -10.444468 1.285816 65.583217 0.004189 0.292415 2.316997 0.006065 0.047117 -0.147901 0.000000 0.000000 0.000000 0.000000 0.000000 0.000000 0.000000 
3.794019 16.887496 -4.456456 -172.197642 15.878333 -157.333312 12.572224 -2.328612 -9.399279 2.199293 -3.757141 -4.462221 -6.385270 -3.853512 0.591312 7.914711 -14.530864 -6.598195 -3.958844 -0.321658 0.343595 0.000000 0.000000 0.000000 5.812216 1.884846 -1.355524 -76.212684 -36.511684 38.342118 -178.062556 -71.744689 179.970051 3.535811 -1.810068 -0.081926 -0.284112 0.812080 -0.000000 0.000000 0.000000 0.000000 0.000000 0.000000 0.000000 11.867995 -12.200403 2.246427 64.586239 -14.291924 -9.778330 1.267886 65.709060 0.003540 -0.124736 2.675973 -0.003498 0.048666 -0.152732 0.000000 0.000000 0.000000 0.000000 0.000000 0.000000 0.000000 
3.897747 16.831635 -4.615167 -172.207004 15.653500 -157.609054 12.792571 -2.295798 -9.396365 2.212019 -3.751689 -4.433133 -6.494682 -3.829452 0.688680 7.679551 -14.586771 -6.856734 -4.118645 -0.331444 0.268514 0.000000 0.000000 0.000000 5.661165 2.296914 -1.198226 -74.388608 -35.769891 36.814362 -177.921862 -70.485275 179.976994 2.986982 -1.981373 -0.074231 -0.264062 0.826908 -0.000000 0.000000 0.000000 0.000000 0.000000 0.000000 0.000000 12.335968 -12.245755 2.098463 64.439762 -13.145745 -9.082850 1.259269 65.688870 0.002762 -0.591931 3.025297 -0.017060 0.051363 -0.157621 -0.000000 0.000000 0.000000 0.000000 0.000000 0.000000 0.000000 
3.997895 16.780090 -4.771024 -172.254577 15.416094 -157.899040 12.968345 -2.288694 -9.345349 2.212781 -3.766132 -4.399772 -6.621341 -3.825667 0.762222 7.488388 -14.600287 -7.119825 -4.283166 -0.341543 0.191079 0.000000 0.000000 0.000000 5.501755 2.688182 -1.034804 -72.555129 -34.875307 35.274579 -177.821407 -69.470572 179.984182 2.422759 -2.141827 -0.063989 -0.240636 0.838577 -0.000000 0.000000 0.000000 0.000000 0.000000 0.000000 0.000000 12.885838 -12.234124 1.961205 64.272572 -11.860046 -8.373717 1.259916 65.515112 0.001843 -1.111531 3.351634 -0.034918 0.055246 -0.162503 -0.000000 0.000000 0.000000 0.000000 0.000000 0.000000 0.000000 
4.094235 16.734453 -4.923563 -172.338903 15.162743 -158.200801 13.097466 -2.305737 -9.241577 2.201782 -3.797960 -4.363424 -6.761144 -3.840405 0.804285 7.344045 -14.561973 -7.377383 -4.449237 -0.351776 0.114065 0.000000 0.000000 0.000000 5.349097 3.042627 -0.870399 -70.758472 -33.808063 33.762023 -177.768843 -68.720275 179.990952 1.886100 -2.272903 -0.052090 -0.215659 0.845725 -0.000000 0.000000 0.000000 0.000000 0.000000 0.000000 0.000000 13.505633 -12.153608 1.840528 64.104413 -10.455053 -7.669910 1.269181 65.189478 0.000780 -1.677447 3.642509 -0.056876 0.060201 -0.167354 -0.000000 0.000000 0.000000 0.000000 0.000000 0.000000 0.000000 
4.186398 16.695922 -5.072516 -172.450173 14.890987 -158.505514 13.182653 -2.342504 -9.086307 2.179886 -3.842838 -4.325447 -6.911265 -3.869862 0.811563 7.246611 -14.465698 -7.621286 -4.613416 -0.361914 0.039721 0.000000 0.000000 0.000000 5.208786 3.355666 -0.707555 -69.034945 -32.572798 32.320405 -177.768073 -68.250811 179.996583 1.425416 -2.354686 -0.040315 -0.191591 0.847077 -0.000000 0.000000 0.000000 0.000000 0.000000 0.000000 0.000000 14.180788 -11.995515 1.739814 63.950966 -8.955976 -6.980466 1.285600 64.727618 -0.000435 -2.280972 3.885920 -0.082234 0.066037 -0.172177 -0.000000 0.000000 0.000000 0.000000 0.000000 0.000000 0.000000 
4.274412 16.665325 -5.217815 -172.581077 14.599493 -158.805302 13.225601 -2.393264 -8.883552 2.147913 -3.895134 -4.287724 -7.067569 -3.908958 0.781074 7.191500 -14.305200 -7.841644 -4.771910 -0.371717 -0.029133 0.000000 0.000000 0.000000 5.087350 3.618765 -0.549009 -67.412957 -31.177496 30.983220 -177.821049 -68.070367 -179.999625 1.089493 -2.366113 -0.030642 -0.170820 0.841502 -0.000000 0.000000 0.000000 0.000000 0.000000 0.000000 0.000000 14.889059 -11.752874 1.661219 63.833341 -7.398027 -6.314658 1.306931 64.155311 -0.001800 -2.904841 4.075197 -0.109595 0.072419 -0.177045 -0.000000 0.000000 0.000000 0.000000 0.000000 0.000000 0.000000 
4.358706 16.643077 -5.359481 -172.729337 14.287521 -159.095644 13.225052 -2.452099 -8.639321 2.105851 -3.948999 -4.250591 -7.227377 -3.951801 0.717249 7.173568 -14.083571 -8.034415 -4.920583 -0.380857 -0.091298 0.000000 0.000000 0.000000 4.982082 3.842865 -0.395614 -65.903378 -29.667622 29.785048 -177.924282 -68.184616 -179.998258 0.926383 -2.287437 -0.024947 -0.155868 0.828253 -0.000000 0.000000 0.000000 0.000000 0.000000 0.000000 0.000000 15.610150 -11.429636 1.602493 63.766430 -5.811393 -5.664484 1.330297 63.508820 -0.003321 -3.533381 4.207835 -0.137461 0.079021 -0.182058 -0.000000 0.000000 0.000000 0.000000 0.000000 0.000000 0.000000 
4.439766 16.629151 -5.497713 -172.892556 13.952991 -159.376370 13.176087 -2.512468 -8.359768 2.053651 -3.997309 -4.217316 -7.383652 -3.992033 0.613028 7.177456 -13.790714 -8.182752 -5.056075 -0.389211 -0.141796 0.000000 0.000000 0.000000 4.906628 3.993383 -0.251899 -64.521085 -28.030651 28.723409 -178.075912 -68.575676 -179.999730 0.973940 -2.102032 -0.024217 -0.147770 0.807050 0.000000 0.000000 0.000000 0.000000 0.000000 0.000000 0.000000 16.305027 -11.019090 1.565251 63.782906 -4.252168 -5.048454 1.352472 62.826547 -0.004942 -4.127594 4.295991 -0.163932 0.085242 -0.187457 -0.000000 0.000000 0.000000 0.000000 0.000000 0.000000 0.000000 
4.518237 16.623208 -5.633120 -173.072050 13.592158 -159.641955 13.077438 -2.568384 -8.058108 1.990693 -4.035158 -4.184264 -7.538581 -4.023223 0.492918 7.202682 -13.455416 -8.302687 -5.173984 -0.396259 -0.185064 0.000000 0.000000 0.000000 4.832393 4.142490 -0.113175 -63.241996 -26.410057 27.847428 -178.259555 -69.260104 179.995846 1.264961 -1.804792 -0.027730 -0.148850 0.778500 0.000000 0.000000 0.000000 0.000000 0.000000 0.000000 0.000000 16.969192 -10.551724 1.536269 63.868097 -2.724988 -4.404300 1.369679 62.163564 -0.006722 -4.699241 4.338834 -0.188606 0.091123 -0.193270 -0.000000 0.000000 0.000000 0.000000 0.000000 0.000000 0.000000 
4.595000 16.624710 -5.766200 -173.273751 13.207245 -159.899121 12.920047 -2.613803 -7.741299 1.916447 -4.055589 -4.155192 -7.683599 -4.039210 0.347784 7.228066 -13.069320 -8.375658 -5.272459 -0.402049 -0.215499 0.000000 0.000000 0.000000 4.774597 4.236499 0.015571 -62.066774 -24.769107 27.123682 -178.469121 -70.193907 179.988624 1.807486 -1.397949 -0.032589 -0.158010 0.743661 0.000000 0.000000 0.000000 0.000000 0.000000 0.000000 0.000000 17.557977 -10.024580 1.517027 64.055811 -1.282905 -3.756069 1.379630 61.554045 -0.008517 -5.195094 4.367451 -0.209988 0.095996 -0.199806 -0.000000 0.000000 0.000000 0.000000 0.000000 0.000000 0.000000 
4.670755 16.633021 -5.897807 -173.501828 12.798328 -160.144070 12.701846 -2.643142 -7.424749 1.830927 -4.053994 -4.129549 -7.816830 -4.034619 0.191248 7.244922 -12.651931 -8.408485 -5.349556 -0.406400 -0.234755 0.000000 0.000000 0.000000 4.717773 4.301376 0.136250 -60.974531 -23.178538 26.558049 -178.688762 -71.354543 179.979094 2.592130 -0.900339 -0.034696 -0.174691 0.704389 0.000000 0.000000 0.000000 0.000000 0.000000 0.000000 0.000000 18.055723 -9.459758 1.498855 64.338097 0.062561 -3.066400 1.380233 61.040688 -0.010282 -5.607244 4.399549 -0.228571 0.099772 -0.207154 -0.000000 0.000000 0.000000 0.000000 0.000000 0.000000 0.000000 
4.745782 16.647381 -6.028898 -173.756231 12.367256 -160.371447 12.422863 -2.651698 -7.123791 1.734641 -4.026806 -4.107843 -7.936185 -4.005428 0.032729 7.244174 -12.219052 -8.405750 -5.404529 -0.409265 -0.243820 0.000000 0.000000 0.000000 4.649191 4.347799 0.250647 -59.944603 -21.678562 26.141889 -178.905103 -72.709282 179.968000 3.584853 -0.342063 -0.029063 -0.197186 0.662760 0.000000 0.000000 0.000000 0.000000 0.000000 0.000000 0.000000 18.447238 -8.874992 1.475560 64.705703 1.304944 -2.308604 1.370761 60.654702 -0.011927 -5.922695 4.457142 -0.244854 0.102347 -0.215401 -0.000000 0.000000 0.000000 0.000000 0.000000 0.000000 0.000000 
4.820567 16.667200 -6.160410 -174.039632 11.919348 -160.573081 12.086268 -2.635881 -6.854479 1.628778 -3.971878 -4.090643 -8.039699 -3.949025 -0.117784 7.219214 -11.787080 -8.374708 -5.437752 -0.410677 -0.244461 0.000000 0.000000 0.000000 4.554887 4.391295 0.360996 -58.957955 -20.305371 25.864688 -179.106236 -74.215683 179.956250 4.729384 0.238514 -0.012303 -0.223296 0.620887 0.000000 0.000000 0.000000 0.000000 0.000000 0.000000 0.000000 18.724551 -8.287749 1.441628 65.141021 2.447989 -1.454482 1.351615 60.418270 -0.013365 -6.135456 4.560007 -0.259735 0.103716 -0.224569 -0.000000 0.000000 0.000000 0.000000 0.000000 0.000000 0.000000 
4.895121 16.691881 -6.293235 -174.350562 11.460457 -160.737955 11.696597 -2.593776 -6.632279 1.514736 -3.888726 -4.079553 -8.125898 -3.864761 -0.254432 7.166143 -11.369727 -8.321083 -5.450582 -0.410767 -0.237999 0.000000 0.000000 0.000000 4.424131 4.434404 0.468919 -58.000425 -19.063781 25.704731 -179.285011 -75.826540 179.944814 5.951271 0.799862 0.016164 -0.250365 0.580518 0.000000 0.000000 0.000000 0.000000 0.000000 0.000000 0.000000 18.884947 -7.712282 1.394616 65.621870 3.502100 -0.483991 1.324317 60.341305 -0.014511 -6.242584 4.723158 -0.273813 0.103919 -0.234646 -0.000000 0.000000 0.000000 0.000000 0.000000 0.000000 0.000000 
4.969330 16.720975 -6.428071 -174.685421 10.998746 -160.855242 11.261445 -2.524881 -6.468636 1.394282 -3.778221 -4.075421 -8.194494 -3.753286 -0.371199 7.084904 -10.978971 -8.252584 -5.445144 -0.409696 -0.226414 0.000000 0.000000 0.000000 4.245705 4.487751 0.576242 -57.060618 -17.959657 25.641290 -179.437156 -77.493628 179.934589 7.167915 1.304862 0.053828 -0.276053 0.542932 0.000000 0.000000 0.000000 0.000000 0.000000 0.000000 0.000000 18.934384 -7.160645 1.333124 66.120325 4.486277 0.621711 1.290860 60.424543 -0.015318 -6.251143 4.953773 -0.287584 0.103094 -0.245552 -0.000000 0.000000 0.000000 0.000000 0.000000 0.000000 0.000000 
5.042631 16.754108 -6.565458 -175.031612 10.543699 -160.916278 10.794982 -2.429185 -6.367634 1.270149 -3.641812 -4.078005 -8.246430 -3.615828 -0.463220 6.977659 -10.620951 -8.177106 -5.423732 -0.407601 -0.211894 0.000000 0.000000 0.000000 4.006786 4.569422 0.685511 -56.129390 -17.002412 25.655709 -179.561856 -79.178649 179.926281 8.298923 1.724462 0.095680 -0.298595 0.508895 0.000000 0.000000 0.000000 0.000000 0.000000 0.000000 0.000000 18.882576 -6.638380 1.257049 66.604854 5.421349 1.873540 1.253063 60.663147 -0.015785 -6.176730 5.250276 -0.301049 0.101446 -0.257165 -0.000000 0.000000 0.000000 0.000000 0.000000 0.000000 0.000000 
